<svg id="Capa_1" enable-background="new 0 0 512.16 512.16" height="512" viewBox="0 0 512.16 512.16" width="512" xmlns="http://www.w3.org/2000/svg">
  <g>
    <path fill="#55a8fa" d="m256.08 301.52-39.336-5.361-6.104-40.078c-25.281-24.961-65.281-24.961-90.24 0l-101.439 101.439c-25.281 24.961-25.281 65.6 0 90.561l45.119 45.119c24.961 25.281 65.6 25.281 90.561 0l101.439-101.44c24.961-24.961 24.961-64.961 0-90.24zm-146.881 146.56-45.119-45.121 101.439-101.76 37.34 7.264 8.102 38.176z"/>
    <path fill="#55a8fa" d="m493.199 64.08-45.119-45.119c-24.961-25.281-65.6-25.281-90.561 0l-101.439 101.439c-24.961 24.959-24.961 64.959 0 90.24l40.559 7.688 4.881 37.752c25.281 24.959 65.281 24.959 90.24 0l101.439-101.439c25.281-24.961 25.281-65.6 0-90.561zm-146.558 146.881-39.682-8.74-5.76-36.701 101.762-101.44 45.119 45.119z"/>
  <g fill="#2672bd">
    <path d="m165.52 301.199 37.34 7.264 8.102 38.176c-12.48 12.48-32.961 12.48-45.441 0-6.08-6.078-9.279-14.398-9.279-22.719s3.197-16.641 9.278-22.721z"/>
    <path d="m256.08 301.52v-.321l-39.336-5.041-5.783-40.078 45.119-45.119 40.559 7.367 4.56 37.752h.321z"/>
    <path d="m355.92 188.24c0 8.32-3.199 16.641-9.279 22.721l-39.682-8.74-5.76-36.701c12.48-12.479 32.961-12.479 45.441 0 6.081 6.08 9.28 14.4 9.28 22.72z"/>
  </g>
    <path fill="#0152a2" d="m256.08 301.199v.321l-45.119 45.119-45.441-45.44 45.121-45.119h.32z"/>
    <path fill="#0152a2" d="m346.641 210.961-45.121 45.119h-.321l-45.119-45.119v-.32l45.119-45.121z"/>
  </g>
</svg>